<mxfile host="app.diagrams.net" modified="2023-10-02T14:18:16.915Z" agent="Mozilla/5.0 (X11; Linux x86_64; rv:109.0) Gecko/20100101 Firefox/118.0" version="21.7.5" etag="VUNLRBgOtTri-bQ_dgPV" type="github">
  <diagram name="Page-1" id="vb8GLts5LTfBm2EF7-pp">
    <mxGraphModel>
      <root>
        <mxCell id="0" />
        <mxCell id="1" parent="0" />
      </root>
    </mxGraphModel>
  </diagram>
</mxfile>
